<svg width="61" height="11" viewBox="0 0 61 11" fill="none" xmlns="http://www.w3.org/2000/svg">
<path d="M8.45881 4.32812H6.59233C6.55824 4.08665 6.48864 3.87216 6.38352 3.68466C6.27841 3.49432 6.14347 3.33239 5.97869 3.19886C5.81392 3.06534 5.62358 2.96307 5.40767 2.89205C5.1946 2.82102 4.96307 2.78551 4.71307 2.78551C4.26136 2.78551 3.8679 2.89773 3.53267 3.12216C3.19744 3.34375 2.9375 3.66761 2.75284 4.09375C2.56818 4.51705 2.47585 5.03125 2.47585 5.63636C2.47585 6.25852 2.56818 6.78125 2.75284 7.20455C2.94034 7.62784 3.2017 7.94744 3.53693 8.16335C3.87216 8.37926 4.25994 8.48722 4.70028 8.48722C4.94744 8.48722 5.17614 8.45455 5.38636 8.3892C5.59943 8.32386 5.78835 8.22869 5.95312 8.10369C6.1179 7.97585 6.25426 7.82102 6.36222 7.6392C6.47301 7.45739 6.54972 7.25 6.59233 7.01705L8.45881 7.02557C8.41051 7.42614 8.28977 7.8125 8.09659 8.18466C7.90625 8.55398 7.64915 8.88494 7.32528 9.17756C7.00426 9.46733 6.62074 9.69744 6.17472 9.8679C5.73153 10.0355 5.23011 10.1193 4.67045 10.1193C3.89205 10.1193 3.19602 9.94318 2.58239 9.59091C1.97159 9.23864 1.48864 8.72869 1.13352 8.06108C0.78125 7.39347 0.605114 6.58523 0.605114 5.63636C0.605114 4.68466 0.784091 3.875 1.14205 3.20739C1.5 2.53977 1.9858 2.03125 2.59943 1.68182C3.21307 1.32955 3.90341 1.15341 4.67045 1.15341C5.17614 1.15341 5.64489 1.22443 6.0767 1.36648C6.51136 1.50852 6.89631 1.71591 7.23153 1.98864C7.56676 2.25852 7.83949 2.58949 8.04972 2.98153C8.26278 3.37358 8.39915 3.82244 8.45881 4.32812ZM32.9094 1.27273L35.0188 7.90341H35.0998L37.2134 1.27273H39.2589L36.2504 10H33.8725L30.8597 1.27273H32.9094Z" fill="#EC6525"/>
<path d="M12.7053 10.1278C12.0433 10.1278 11.4709 9.98722 10.9879 9.70597C10.5078 9.42187 10.1371 9.02699 9.87571 8.52131C9.61435 8.01278 9.48366 7.4233 9.48366 6.75284C9.48366 6.0767 9.61435 5.4858 9.87571 4.98011C10.1371 4.47159 10.5078 4.0767 10.9879 3.79545C11.4709 3.51136 12.0433 3.36932 12.7053 3.36932C13.3672 3.36932 13.9382 3.51136 14.4183 3.79545C14.9013 4.0767 15.2734 4.47159 15.5348 4.98011C15.7962 5.4858 15.9268 6.0767 15.9268 6.75284C15.9268 7.4233 15.7962 8.01278 15.5348 8.52131C15.2734 9.02699 14.9013 9.42187 14.4183 9.70597C13.9382 9.98722 13.3672 10.1278 12.7053 10.1278ZM12.7138 8.72159C13.0149 8.72159 13.2663 8.63636 13.468 8.46591C13.6697 8.29261 13.8217 8.05682 13.924 7.75852C14.0291 7.46023 14.0817 7.12074 14.0817 6.74006C14.0817 6.35938 14.0291 6.01989 13.924 5.72159C13.8217 5.4233 13.6697 5.1875 13.468 5.0142C13.2663 4.84091 13.0149 4.75426 12.7138 4.75426C12.4098 4.75426 12.1541 4.84091 11.9467 5.0142C11.7422 5.1875 11.5874 5.4233 11.4822 5.72159C11.38 6.01989 11.3288 6.35938 11.3288 6.74006C11.3288 7.12074 11.38 7.46023 11.4822 7.75852C11.5874 8.05682 11.7422 8.29261 11.9467 8.46591C12.1541 8.63636 12.4098 8.72159 12.7138 8.72159ZM19.5192 10.1065C19.022 10.1065 18.5717 9.97869 18.1683 9.72301C17.7678 9.46449 17.4496 9.08523 17.2138 8.58523C16.9808 8.08239 16.8643 7.46591 16.8643 6.7358C16.8643 5.9858 16.9851 5.36222 17.2266 4.86506C17.468 4.36506 17.7891 3.99148 18.1896 3.74432C18.593 3.49432 19.0348 3.36932 19.5149 3.36932C19.8814 3.36932 20.1868 3.43182 20.4311 3.55682C20.6783 3.67898 20.8771 3.83239 21.0277 4.01705C21.1811 4.19886 21.2976 4.37784 21.3771 4.55398H21.4325V1.27273H23.2436V10H21.4538V8.9517H21.3771C21.2919 9.13352 21.1712 9.31392 21.0149 9.4929C20.8615 9.66903 20.6612 9.81534 20.4141 9.93182C20.1697 10.0483 19.8714 10.1065 19.5192 10.1065ZM20.0945 8.66193C20.3871 8.66193 20.6342 8.58239 20.8359 8.4233C21.0405 8.26136 21.1967 8.03551 21.3047 7.74574C21.4155 7.45597 21.4709 7.11648 21.4709 6.72727C21.4709 6.33807 21.4169 6 21.3089 5.71307C21.201 5.42614 21.0447 5.20455 20.8402 5.0483C20.6357 4.89205 20.3871 4.81392 20.0945 4.81392C19.7962 4.81392 19.5447 4.89489 19.3402 5.05682C19.1357 5.21875 18.9808 5.44318 18.8757 5.73011C18.7706 6.01705 18.718 6.34943 18.718 6.72727C18.718 7.10795 18.7706 7.4446 18.8757 7.73722C18.9837 8.02699 19.1385 8.25426 19.3402 8.41903C19.5447 8.58097 19.7962 8.66193 20.0945 8.66193ZM27.7191 10.1278C27.0458 10.1278 26.4663 9.99148 25.9805 9.71875C25.4975 9.44318 25.1254 9.05398 24.864 8.55114C24.6026 8.04545 24.4719 7.44744 24.4719 6.7571C24.4719 6.08381 24.6026 5.4929 24.864 4.98438C25.1254 4.47585 25.4933 4.07955 25.9677 3.79545C26.445 3.51136 27.0046 3.36932 27.6467 3.36932C28.0785 3.36932 28.4805 3.43892 28.8526 3.57812C29.2276 3.71449 29.5543 3.92045 29.8327 4.19602C30.114 4.47159 30.3327 4.81818 30.489 5.2358C30.6452 5.65057 30.7234 6.13636 30.7234 6.69318V7.19176H25.1964V6.06676H29.0146C29.0146 5.8054 28.9577 5.57386 28.8441 5.37216C28.7305 5.17045 28.5728 5.01278 28.3711 4.89915C28.1722 4.78267 27.9407 4.72443 27.6765 4.72443C27.4009 4.72443 27.1566 4.78835 26.9435 4.91619C26.7333 5.04119 26.5685 5.21023 26.4492 5.4233C26.3299 5.63352 26.2688 5.8679 26.266 6.12642V7.19602C26.266 7.51989 26.3256 7.79972 26.445 8.03551C26.5671 8.27131 26.739 8.45312 26.9606 8.58097C27.1822 8.70881 27.445 8.77273 27.7489 8.77273C27.9506 8.77273 28.1353 8.74432 28.3029 8.6875C28.4705 8.63068 28.614 8.54545 28.7333 8.43182C28.8526 8.31818 28.9435 8.17898 29.006 8.0142L30.685 8.125C30.5998 8.52841 30.4251 8.88068 30.1609 9.18182C29.8995 9.48011 29.5614 9.71307 29.1467 9.88068C28.7347 10.0455 28.2589 10.1278 27.7191 10.1278ZM40.2752 10V3.45455H42.0906V10H40.2752ZM41.1871 2.6108C40.9173 2.6108 40.6857 2.52131 40.4925 2.34233C40.3022 2.16051 40.207 1.94318 40.207 1.69034C40.207 1.44034 40.3022 1.22585 40.4925 1.04688C40.6857 0.865057 40.9173 0.774147 41.1871 0.774147C41.457 0.774147 41.6871 0.865057 41.8775 1.04688C42.0707 1.22585 42.1673 1.44034 42.1673 1.69034C42.1673 1.94318 42.0707 2.16051 41.8775 2.34233C41.6871 2.52131 41.457 2.6108 41.1871 2.6108ZM47.0263 3.45455V4.81818H43.0845V3.45455H47.0263ZM43.9794 1.88636H45.7947V7.98864C45.7947 8.15625 45.8203 8.28693 45.8714 8.38068C45.9226 8.47159 45.9936 8.53551 46.0845 8.57244C46.1783 8.60937 46.2862 8.62784 46.4084 8.62784C46.4936 8.62784 46.5788 8.62074 46.6641 8.60653C46.7493 8.58949 46.8146 8.5767 46.8601 8.56818L47.1456 9.91903C47.0547 9.94744 46.9268 9.98011 46.7621 10.017C46.5973 10.0568 46.397 10.081 46.1612 10.0895C45.7237 10.1065 45.3402 10.0483 45.0107 9.91477C44.6839 9.78125 44.4297 9.57386 44.2479 9.29261C44.0661 9.01136 43.9766 8.65625 43.9794 8.22727V1.88636ZM50.0753 10.1236C49.6577 10.1236 49.2855 10.0511 48.9588 9.90625C48.6321 9.75852 48.3736 9.54119 48.1832 9.25426C47.9957 8.96449 47.902 8.60369 47.902 8.17188C47.902 7.80824 47.9688 7.50284 48.1023 7.25568C48.2358 7.00852 48.4176 6.80966 48.6477 6.65909C48.8778 6.50852 49.1392 6.39489 49.4318 6.31818C49.7273 6.24148 50.0369 6.1875 50.3608 6.15625C50.7415 6.11648 51.0483 6.07955 51.2812 6.04545C51.5142 6.00852 51.6832 5.95455 51.7884 5.88352C51.8935 5.8125 51.946 5.70739 51.946 5.56818V5.54261C51.946 5.27273 51.8608 5.06392 51.6903 4.91619C51.5227 4.76847 51.2841 4.6946 50.9744 4.6946C50.6477 4.6946 50.3878 4.76705 50.1946 4.91193C50.0014 5.05398 49.8736 5.23295 49.8111 5.44886L48.1321 5.3125C48.2173 4.91477 48.3849 4.57102 48.6349 4.28125C48.8849 3.98864 49.2074 3.7642 49.6023 3.60795C50 3.44886 50.4602 3.36932 50.983 3.36932C51.3466 3.36932 51.6946 3.41193 52.027 3.49716C52.3622 3.58239 52.6591 3.71449 52.9176 3.89347C53.179 4.07244 53.3849 4.30256 53.5355 4.58381C53.6861 4.86222 53.7614 5.19602 53.7614 5.58523V10H52.0398V9.09233H51.9886C51.8835 9.29688 51.7429 9.47727 51.5668 9.63352C51.3906 9.78693 51.179 9.90767 50.9318 9.99574C50.6847 10.081 50.3991 10.1236 50.0753 10.1236ZM50.5952 8.87074C50.8622 8.87074 51.098 8.81818 51.3026 8.71307C51.5071 8.60511 51.6676 8.46023 51.7841 8.27841C51.9006 8.09659 51.9588 7.89062 51.9588 7.66051V6.96591C51.902 7.00284 51.8239 7.03693 51.7244 7.06818C51.6278 7.09659 51.5185 7.12358 51.3963 7.14915C51.2741 7.17187 51.152 7.19318 51.0298 7.21307C50.9077 7.23011 50.7969 7.24574 50.6974 7.25994C50.4844 7.29119 50.2983 7.34091 50.1392 7.40909C49.9801 7.47727 49.8565 7.5696 49.7685 7.68608C49.6804 7.79972 49.6364 7.94176 49.6364 8.11222C49.6364 8.35938 49.7259 8.5483 49.9048 8.67898C50.0866 8.80682 50.3168 8.87074 50.5952 8.87074ZM56.2308 10.1108C55.9496 10.1108 55.7081 10.0114 55.5064 9.8125C55.3075 9.6108 55.2081 9.36932 55.2081 9.08807C55.2081 8.80966 55.3075 8.57102 55.5064 8.37216C55.7081 8.1733 55.9496 8.07386 56.2308 8.07386C56.5036 8.07386 56.7422 8.1733 56.9467 8.37216C57.1513 8.57102 57.2536 8.80966 57.2536 9.08807C57.2536 9.27557 57.2053 9.44744 57.1087 9.60369C57.0149 9.7571 56.8913 9.88068 56.7379 9.97443C56.5845 10.0653 56.4155 10.1108 56.2308 10.1108ZM59.805 10.1108C59.5238 10.1108 59.2823 10.0114 59.0806 9.8125C58.8817 9.6108 58.7823 9.36932 58.7823 9.08807C58.7823 8.80966 58.8817 8.57102 59.0806 8.37216C59.2823 8.1733 59.5238 8.07386 59.805 8.07386C60.0778 8.07386 60.3164 8.1733 60.521 8.37216C60.7255 8.57102 60.8278 8.80966 60.8278 9.08807C60.8278 9.27557 60.7795 9.44744 60.6829 9.60369C60.5891 9.7571 60.4656 9.88068 60.3121 9.97443C60.1587 10.0653 59.9897 10.1108 59.805 10.1108Z" fill="white"/>
</svg>
